<?xml version="1.0" encoding="UTF-8" standalone="no"?>
<!-- Generated by graphviz version 2.38.0 (20140413.2041)
 -->

<!-- Title: elastix Pages: 1 -->

<svg
   xmlns:dc="http://purl.org/dc/elements/1.1/"
   xmlns:cc="http://creativecommons.org/ns#"
   xmlns:rdf="http://www.w3.org/1999/02/22-rdf-syntax-ns#"
   xmlns:svg="http://www.w3.org/2000/svg"
   xmlns="http://www.w3.org/2000/svg"
   xmlns:sodipodi="http://sodipodi.sourceforge.net/DTD/sodipodi-0.dtd"
   xmlns:inkscape="http://www.inkscape.org/namespaces/inkscape"
   width="270pt"
   height="188pt"
   viewBox="0.00 0.00 269.54 188.00"
   id="svg2"
   version="1.1"
   inkscape:version="0.48.5 r10040"
   sodipodi:docname="elastixgraph_manual.svg">
  <metadata
     id="metadata62">
    <rdf:RDF>
      <cc:Work
         rdf:about="">
        <dc:format>image/svg+xml</dc:format>
        <dc:type
           rdf:resource="http://purl.org/dc/dcmitype/StillImage" />
        <dc:title></dc:title>
      </cc:Work>
    </rdf:RDF>
  </metadata>
  <defs
     id="defs60" />
  <sodipodi:namedview
     pagecolor="#ffffff"
     bordercolor="#666666"
     borderopacity="1"
     objecttolerance="10"
     gridtolerance="10"
     guidetolerance="10"
     inkscape:pageopacity="0"
     inkscape:pageshadow="2"
     inkscape:window-width="698"
     inkscape:window-height="480"
     id="namedview58"
     showgrid="false"
     inkscape:zoom="2.3968301"
     inkscape:cx="205.34707"
     inkscape:cy="124.18496"
     inkscape:window-x="1896"
     inkscape:window-y="358"
     inkscape:window-maximized="0"
     inkscape:current-layer="svg2" />
  <g
     id="graph0"
     class="graph"
     transform="scale(1 1) rotate(0) translate(4 184)">
    <title
       id="title5">elastix</title>
    <polygon
       fill="white"
       stroke="none"
       points="-4,4 -4,-184 265.539,-184 265.539,4 -4,4"
       id="polygon7" />
    <!-- elastix -->
    <g
       id="node1"
       class="node">
      <title
         id="title10">elastix</title>
      <ellipse
         fill="none"
         stroke="black"
         cx="127.195"
         cy="-90"
         rx="33.2948"
         ry="18"
         id="ellipse12"
         d="m 160.4898,-90 c 0,9.941125 -14.90659,18 -33.2948,18 -18.38821,0 -33.2948,-8.058875 -33.2948,-18 0,-9.941125 14.90659,-18 33.2948,-18 18.38821,0 33.2948,8.058875 33.2948,18 z" />
      <text
         text-anchor="middle"
         x="127.195"
         y="-86.3"
         font-family="Times New Roman,serif"
         font-size="14.00"
         id="text14">elastix</text>
    </g>
    <!-- SinkImage -->
    <g
       id="node4"
       class="node">
      <title
         id="title17">SinkImage</title>
      <ellipse
         fill="none"
         stroke="black"
         cx="127.195"
         cy="-18"
         rx="48.9926"
         ry="18"
         id="ellipse19"
         d="m 176.1876,-18 c 0,9.9411255 -21.93473,18 -48.9926,18 -27.05787,0 -48.9926,-8.0588745 -48.9926,-18 0,-9.941125 21.93473,-18 48.9926,-18 27.05787,0 48.9926,8.058875 48.9926,18 z" />
      <text
         text-anchor="middle"
         x="127.195"
         y="-14.3"
         font-family="Times New Roman,serif"
         font-size="14.00"
         id="text21">SinkImage</text>
    </g>
    <!-- elastix&#45;&gt;SinkImage -->
    <g
       id="edge1"
       class="edge">
      <title
         id="title24">elastix-&gt;SinkImage</title>
      <path
         fill="none"
         stroke="black"
         d="M127.195,-71.6966C127.195,-63.9827 127.195,-54.7125 127.195,-46.1124"
         id="path26" />
      <polygon
         fill="black"
         stroke="black"
         points="130.695,-46.1043 127.195,-36.1043 123.695,-46.1044 130.695,-46.1043"
         id="polygon28" />
    </g>
    <!-- SourceFixed -->
    <g
       id="node2"
       class="node">
      <title
         id="title31">SourceFixed</title>
      <ellipse
         fill="none"
         stroke="black"
         cx="57.1949"
         cy="-162"
         rx="57.3905"
         ry="18"
         id="ellipse33"
         d="m 114.5854,-162 c 0,9.94113 -25.694602,18 -57.390499,18 -31.695898,0 -57.3904996,-8.05887 -57.3904996,-18 0,-9.94113 25.6946016,-18 57.3904996,-18 31.695897,0 57.390499,8.05887 57.390499,18 z" />
      <text
         text-anchor="middle"
         x="57.1949"
         y="-158.3"
         font-family="Times New Roman,serif"
         font-size="14.00"
         id="text35">SourceFixed</text>
    </g>
    <!-- SourceFixed&#45;&gt;elastix -->
    <g
       id="edge2"
       class="edge">
      <title
         id="title38">SourceFixed-&gt;elastix</title>
      <path
         fill="none"
         stroke="black"
         d="M73.7839,-144.411C82.9337,-135.261 94.4301,-123.765 104.411,-113.784"
         id="path40" />
      <polygon
         fill="black"
         stroke="black"
         points="107.088,-116.057 111.684,-106.511 102.138,-111.107 107.088,-116.057"
         id="polygon42" />
    </g>
    <!-- SourceMoving -->
    <g
       id="node3"
       class="node">
      <title
         id="title45">SourceMoving</title>
      <ellipse
         fill="none"
         stroke="black"
         cx="197.195"
         cy="-162"
         rx="64.189"
         ry="18"
         id="ellipse47"
         d="m 261.38401,-162 c 0,9.94113 -28.7384,18 -64.189,18 -35.45061,0 -64.18901,-8.05887 -64.18901,-18 0,-9.94113 28.7384,-18 64.18901,-18 35.4506,0 64.189,8.05887 64.189,18 z" />
      <text
         text-anchor="middle"
         x="197.195"
         y="-158.3"
         font-family="Times New Roman,serif"
         font-size="14.00"
         id="text49">SourceMoving</text>
    </g>
    <!-- SourceMoving&#45;&gt;elastix -->
    <g
       id="edge3"
       class="edge">
      <title
         id="title52">SourceMoving-&gt;elastix</title>
      <path
         fill="none"
         stroke="black"
         d="M180.606,-144.411C171.456,-135.261 159.96,-123.765 149.979,-113.784"
         id="path54" />
      <polygon
         fill="black"
         stroke="black"
         points="152.252,-111.107 142.706,-106.511 147.302,-116.057 152.252,-111.107"
         id="polygon56" />
    </g>
  </g>
  <path
     style="fill:#000000;fill-opacity:1;stroke:none;display:inline"
     d="m 82.52922,67.519325 0,-12.800063 c 12.000076,0 12.000076,12.800063 0,12.800063 z"
     id="rect11775-9-5-2-9"
     inkscape:connector-curvature="0"
     sodipodi:nodetypes="ccc" />
  <path
     style="fill:#000000;fill-opacity:1;stroke:none;display:inline"
     d="m 148.58699,60.398809 0,-12.800062 12.00004,6.40003 z"
     id="rect11775-9-5-4-1-0-1"
     inkscape:connector-curvature="0"
     sodipodi:nodetypes="cccc" />
  <path
     style="fill:#000000;fill-opacity:1;stroke:none;display:inline"
     d="m 115.26137,123.75758 c -4.00002,-4.00002 -1.60001,-5.60003 2.40001,-5.60003 4.00004,0 6.40005,1.60001 2.40002,5.60003 4.00003,4.00002 1.60002,5.60002 -2.40002,5.60002 -4.00002,0 -6.40003,-1.6 -2.40001,-5.60002 z"
     id="path8132"
     inkscape:connector-curvature="0"
     sodipodi:nodetypes="cscsc" />
</svg>
