<?xml version="1.0" encoding="UTF-8" standalone="no"?>
<!-- Generated by graphviz version 2.38.0 (20140413.2041)
 -->

<!-- Title: G Pages: 1 -->

<svg
   xmlns:dc="http://purl.org/dc/elements/1.1/"
   xmlns:cc="http://creativecommons.org/ns#"
   xmlns:rdf="http://www.w3.org/1999/02/22-rdf-syntax-ns#"
   xmlns:svg="http://www.w3.org/2000/svg"
   xmlns="http://www.w3.org/2000/svg"
   xmlns:sodipodi="http://sodipodi.sourceforge.net/DTD/sodipodi-0.dtd"
   xmlns:inkscape="http://www.inkscape.org/namespaces/inkscape"
   width="385.40021"
   height="235.03297"
   viewBox="0 0 308.32016 188.03725"
   id="svg2"
   version="1.1"
   inkscape:version="0.48.5 r10040"
   sodipodi:docname="itkv4graph_manual.svg">
  <metadata
     id="metadata90">
    <rdf:RDF>
      <cc:Work
         rdf:about="">
        <dc:format>image/svg+xml</dc:format>
        <dc:type
           rdf:resource="http://purl.org/dc/dcmitype/StillImage" />
        <dc:title />
      </cc:Work>
    </rdf:RDF>
  </metadata>
  <defs
     id="defs88" />
  <sodipodi:namedview
     pagecolor="#ffffff"
     bordercolor="#666666"
     borderopacity="1"
     objecttolerance="10"
     gridtolerance="10"
     guidetolerance="10"
     inkscape:pageopacity="0"
     inkscape:pageshadow="2"
     inkscape:window-width="1680"
     inkscape:window-height="988"
     id="namedview86"
     showgrid="false"
     fit-margin-top="0"
     fit-margin-left="0"
     fit-margin-right="0"
     fit-margin-bottom="0"
     inkscape:zoom="1.7976226"
     inkscape:cx="140.14767"
     inkscape:cy="134.10965"
     inkscape:window-x="1592"
     inkscape:window-y="142"
     inkscape:window-maximized="1"
     inkscape:current-layer="node6" />
  <g
     class="node"
     id="node1"
     transform="matrix(0.920268,0,0,0.920268,-33.639734,187.57711)">
    <title
       id="title10">itkRegistrationMethodv4</title>
    <ellipse
       style="fill:none;stroke:#000000"
       sodipodi:ry="18"
       sodipodi:rx="100.182"
       sodipodi:cy="-90"
       sodipodi:cx="197.19501"
       d="m 297.37701,-90 c 0,9.941125 -44.85301,18 -100.182,18 -55.32899,0 -100.182002,-8.058875 -100.182002,-18 0,-9.941125 44.853012,-18 100.182002,-18 55.32899,0 100.182,8.058875 100.182,18 z"
       id="ellipse12"
       ry="18"
       rx="100.182"
       cy="-90"
       cx="197.19501" />
    <text
       style="font-size:14px;text-anchor:middle;font-family:'Times New Roman,serif'"
       id="text14"
       font-size="14.00"
       y="-86.300003"
       x="197.19501">itkRegistrationMethodv4</text>
  </g>
  <g
     class="node"
     id="node4"
     transform="matrix(0.920268,0,0,0.920268,-33.639734,187.57711)">
    <title
       id="title17">SinkImage</title>
    <ellipse
       style="fill:none;stroke:#000000"
       sodipodi:ry="18"
       sodipodi:rx="48.992599"
       sodipodi:cy="-18"
       sodipodi:cx="92.194901"
       d="m 141.1875,-18 c 0,9.9411255 -21.93473,18 -48.992599,18 -27.057866,0 -48.9926,-8.0588745 -48.9926,-18 0,-9.941125 21.934734,-18 48.9926,-18 27.057869,0 48.992599,8.058875 48.992599,18 z"
       id="ellipse19"
       ry="18"
       rx="48.992599"
       cy="-18"
       cx="92.194901" />
    <text
       style="font-size:14px;text-anchor:middle;font-family:'Times New Roman,serif'"
       id="text21"
       font-size="14.00"
       y="-14.3"
       x="92.194901">SinkImage</text>
  </g>
  <g
     class="edge"
     id="edge1"
     transform="matrix(0.920268,0,0,0.920268,-33.639734,187.57711)">
    <title
       id="title24">itkRegistrationMethodv4-&gt;SinkImage</title>
    <path
       style="fill:none;stroke:#000000"
       inkscape:connector-curvature="0"
       id="path26"
       d="m 172.311,-72.411 c -14.736,9.8244 -33.531,22.3543 -49.213,32.8087" />
    <polygon
       style="fill:#000000;stroke:#000000"
       id="polygon28"
       points="125.014,-36.6731 125.014,-36.6731 114.752,-34.0382 121.131,-42.4975 " />
  </g>
  <g
     class="node"
     id="node5"
     transform="matrix(0.920268,0,0,0.920268,-33.639734,187.57711)">
    <title
       id="title31">SinkDeformationField</title>
    <ellipse
       style="fill:none;stroke:#000000"
       sodipodi:ry="18"
       sodipodi:rx="90.184196"
       sodipodi:cy="-18"
       sodipodi:cx="249.19501"
       d="m 339.3792,-18 c 0,9.9411255 -40.37684,18 -90.18419,18 -49.80736,0 -90.1842,-8.0588745 -90.1842,-18 0,-9.941125 40.37684,-18 90.1842,-18 49.80735,0 90.18419,8.058875 90.18419,18 z"
       id="ellipse33"
       ry="18"
       rx="90.184196"
       cy="-18"
       cx="249.19501" />
    <text
       style="font-size:14px;text-anchor:middle;font-family:'Times New Roman,serif'"
       id="text35"
       font-size="14.00"
       y="-14.3"
       x="249.19501">SinkDeformationField</text>
  </g>
  <g
     class="edge"
     id="edge2"
     transform="matrix(0.920268,0,0,0.920268,-33.639734,187.57711)">
    <title
       id="title38">itkRegistrationMethodv4-&gt;SinkDeformationField</title>
    <path
       style="fill:none;stroke:#000000"
       inkscape:connector-curvature="0"
       id="path40"
       d="m 209.783,-72.055 c 6.167,8.3024 13.721,18.4713 20.56,27.6772" />
    <polygon
       style="fill:#000000;stroke:#000000"
       id="polygon42"
       points="233.208,-46.3899 233.208,-46.3899 236.362,-36.2753 227.589,-42.2156 " />
  </g>
  <g
     class="node"
     id="node2"
     transform="matrix(0.920268,0,0,0.920268,0.62972794,166.10837)">
    <title
       id="title45">SourceFixed</title>
    <ellipse
       style="fill:none;stroke:#000000"
       sodipodi:ry="18"
       sodipodi:rx="57.390499"
       sodipodi:cy="-162"
       sodipodi:cx="57.194901"
       d="m 114.5854,-162 c 0,9.94113 -25.694602,18 -57.390499,18 -31.695898,0 -57.3904996,-8.05887 -57.3904996,-18 0,-9.94113 25.6946016,-18 57.3904996,-18 31.695897,0 57.390499,8.05887 57.390499,18 z"
       id="ellipse47"
       ry="18"
       rx="57.390499"
       cy="-162"
       cx="57.194901" />
    <text
       style="font-size:14px;text-anchor:middle;font-family:'Times New Roman,serif'"
       id="text49"
       font-size="14.00"
       y="-158.3"
       x="57.194901">SourceFixed</text>
  </g>
  <g
     class="edge"
     id="edge3"
     transform="matrix(0.81428782,0.4287523,-0.4287523,0.81428782,-69.305156,105.0999)">
    <title
       id="title52">SourceFixed-&gt;itkRegistrationMethodv4</title>
    <g
       id="g3116">
      <path
         d="M 97.896616,-141.37261 155.738,-111.728"
         id="path54"
         inkscape:connector-curvature="0"
         style="fill:none;stroke:#000000"
         sodipodi:nodetypes="cc" />
      <polygon
         points="157.575,-114.723 157.575,-114.723 164.954,-107.121 154.444,-108.462 "
         id="polygon56"
         style="fill:#000000;stroke:#000000" />
    </g>
  </g>
  <g
     class="node"
     id="node3"
     transform="matrix(0.920268,0,0,0.920268,0.62972794,166.10837)">
    <title
       id="title59">SourceMoving</title>
    <ellipse
       style="fill:none;stroke:#000000"
       sodipodi:ry="18"
       sodipodi:rx="64.189003"
       sodipodi:cy="-162"
       sodipodi:cx="197.19501"
       d="m 261.38401,-162 c 0,9.94113 -28.7384,18 -64.189,18 -35.45061,0 -64.18901,-8.05887 -64.18901,-18 0,-9.94113 28.7384,-18 64.18901,-18 35.4506,0 64.189,8.05887 64.189,18 z"
       id="ellipse61"
       ry="18"
       rx="64.189003"
       cy="-162"
       cx="197.19501" />
    <text
       style="font-size:14px;text-anchor:middle;font-family:'Times New Roman,serif'"
       id="text63"
       font-size="14.00"
       y="-158.3"
       x="197.19501">SourceMoving</text>
  </g>
  <g
     class="edge"
     id="edge4"
     transform="matrix(0.88891063,0.23818288,-0.23818288,0.88891063,-57.443562,136.66073)">
    <title
       id="title66">SourceMoving-&gt;itkRegistrationMethodv4</title>
    <g
       id="g3112">
      <path
         d="M 195.10724,-170.17419 197.195,-118.112"
         id="path68"
         inkscape:connector-curvature="0"
         style="fill:none;stroke:#000000"
         sodipodi:nodetypes="cc" />
      <polygon
         points="200.695,-118.104 197.195,-108.104 193.695,-118.104 200.695,-118.104 "
         id="polygon70"
         style="fill:#000000;stroke:#000000" />
    </g>
  </g>
  <g
     class="node"
     id="node6"
     transform="matrix(0.920268,0,0,0.920268,-44.766183,208.04978)">
    <title
       id="title73">itkMetricv4</title>
    <ellipse
       style="fill:none;stroke:#000000"
       sodipodi:ry="18"
       sodipodi:rx="51.990799"
       sodipodi:cy="-162"
       sodipodi:cx="331.19501"
       d="m 383.18581,-162 c 0,9.94113 -23.27708,18 -51.9908,18 -28.71373,0 -51.9908,-8.05887 -51.9908,-18 0,-9.94113 23.27707,-18 51.9908,-18 28.71372,0 51.9908,8.05887 51.9908,18 z"
       id="ellipse75"
       ry="18"
       rx="51.990799"
       cy="-162"
       cx="331.19501" />
    <text
       style="font-size:14px;text-anchor:middle;font-family:'Times New Roman,serif'"
       id="text77"
       font-size="14.00"
       y="-158.3"
       x="331.19501"></text>
    <text
       style="font-size:14px;text-anchor:middle;font-family:'Times New Roman,serif'"
       font-size="14.00"
       y="-164.58704"
       x="330.7114"
       id="text3050">ANTsC or</text>
    <text
       style="font-size:14px;text-anchor:middle;font-family:'Times New Roman,serif'"
       font-size="14.00"
       y="-150.56212"
       x="331.19501"
       id="text3032">MSD</text>
    <flowRoot
       xml:space="preserve"
       id="flowRoot3034"
       style="fill:black;stroke:none;stroke-opacity:1;stroke-width:1px;stroke-linejoin:miter;stroke-linecap:butt;fill-opacity:1;font-family:Times New Roman;font-style:normal;font-weight:normal;font-size:14px;line-height:125%;letter-spacing:0px;word-spacing:0px;-inkscape-font-specification:Times New Roman"><flowRegion
         id="flowRegion3036"><rect
           id="rect3038"
           width="5.5629029"
           height="59.52306"
           x="324.31723"
           y="78.715401" /></flowRegion><flowPara
         id="flowPara3040"></flowPara></flowRoot>    <flowRoot
       xml:space="preserve"
       id="flowRoot3042"
       style="fill:black;stroke:none;stroke-opacity:1;stroke-width:1px;stroke-linejoin:miter;stroke-linecap:butt;fill-opacity:1;font-family:Times New Roman;font-style:normal;font-weight:normal;font-size:14px;line-height:125%;letter-spacing:0px;word-spacing:0px;-inkscape-font-specification:Times New Roman"><flowRegion
         id="flowRegion3044"><rect
           id="rect3046"
           width="37.82774"
           height="37.27145"
           x="323.76096"
           y="78.159111" /></flowRegion><flowPara
         id="flowPara3048"></flowPara></flowRoot>  </g>
  <g
     class="edge"
     id="edge5"
     transform="matrix(0.920268,0,0,0.920268,-33.639734,187.57711)">
    <title
       id="title80">itkMetricv4-&gt;itkRegistrationMethodv4</title>
    <path
       style="fill:none;stroke:#000000"
       inkscape:connector-curvature="0"
       id="path82"
       d="M 272.31984,-132.15747 237.246,-111.922"
       sodipodi:nodetypes="cc" />
    <polygon
       style="fill:#000000;stroke:#000000"
       id="polygon84"
       points="238.836,-108.804 238.836,-108.804 228.352,-107.276 235.595,-115.008 " />
  </g>
  <path
     style="fill:#000000;fill-opacity:1;stroke:none;display:inline"
     d="m 77.089247,68.93131 0,-12.800803 c 12.00077,0 12.00077,12.800803 0,12.800803 z"
     id="rect11775-9-5-2-9"
     inkscape:connector-curvature="0"
     sodipodi:nodetypes="ccc" />
  <path
     style="fill:#000000;fill-opacity:1;stroke:none;display:inline"
     d="m 135.47359,61.810383 0,-12.800803 12.00074,6.400401 z"
     id="rect11775-9-5-4-1-0-1"
     inkscape:connector-curvature="0"
     sodipodi:nodetypes="cccc" />
  <path
     sodipodi:type="star"
     style="color:#000000;fill:#000000;fill-opacity:1;fill-rule:nonzero;stroke:none;stroke-width:1;marker:none;visibility:visible;display:inline;overflow:visible;enable-background:accumulate"
     id="path7863-1-8"
     sodipodi:sides="5"
     sodipodi:cx="230"
     sodipodi:cy="177.36218"
     sodipodi:r1="10"
     sodipodi:r2="5"
     sodipodi:arg1="1.5707963"
     sodipodi:arg2="2.1991149"
     inkscape:flatsided="false"
     inkscape:rounded="0"
     inkscape:randomized="0"
     d="m 230,187.36218 -2.93893,-5.95491 -6.57164,-0.95492 4.75529,-4.63525 -1.12257,-6.54509 5.87785,3.09017 5.87785,-3.09017 -1.12257,6.54509 4.75529,4.63525 -6.57164,0.95492 z"
     transform="matrix(0,-0.80005024,0.80005024,0,46.754245,251.43809)"
     inkscape:transform-center-x="-0.76397522" />
  <rect
     style="color:#000000;fill:#000000;fill-opacity:1;fill-rule:nonzero;stroke:none;stroke-width:0.66667002;marker:none;visibility:visible;display:inline;overflow:visible;enable-background:accumulate"
     id="rect8130"
     width="8.0005026"
     height="8.0005026"
     x="-213.65671"
     y="11.548002"
     transform="matrix(-0.71083913,-0.70335463,0.70335463,-0.71083913,0,0)" />
  <path
     style="fill:#000000;fill-opacity:1;stroke:none;display:inline"
     d="m 91.130853,131.51489 c -4.00025,-4.00025 -1.6001,-5.60035 2.40015,-5.60035 4.00026,0 6.40041,1.6001 2.40015,5.60035 4.00026,4.00025 1.60011,5.60035 -2.40015,5.60035 -4.00025,0 -6.4004,-1.6001 -2.40015,-5.60035 z"
     id="path8132"
     inkscape:connector-curvature="0"
     sodipodi:nodetypes="cscsc" />
</svg>
